{"title":"Hollywood.Banker.2014.WEBRiP.XViD.ReLeNTLesS","uid":12277063,"size":1064231681,"categoryP":"video","categoryS":"movies","magnet":"?xt=urn:btih:3cc6f2afbc078ee41f7cf848f46bd1d276d933fe&amp;dn=Hollywood.Banker.2014.WEBRiP.XViD.ReLeNTLesS&amp;tr=udp%3A%2F%2Ftracker.openbittorrent.com%3A80&amp;tr=udp%3A%2F%2Fopen.demonii.com%3A1337&amp;tr=udp%3A%2F%2Ftracker.coppersurfer.tk%3A6969&amp;tr=udp%3A%2F%2Fexodus.desync.com%3A6969","seeders":1,"leechers":0,"uploader":"TvTeam","files":4,"time":1440366889,"description":"------------------------------------------------------------------------\n\n &lt;a href=&quot; https://www.torrenting.com&quot; rel=&quot;nofollow&quot; target=&quot;_NEW&quot;&gt; https://www.torrenting.com&lt;/a&gt;\n\nSign up is OPEN - for time being. Come and have fun\n\n.......................................................................................................................P0STER\n[img]http://i.imgur.com/xXriqLC.png[/img]\n\niMDB: http://www.imdb.com/title/tt1929178/\n\nGeneral\nComplete name               : Hollywood.Banker.2014.WEBRiP.XViD.ReLeNTLesS.avi\nFormat                      : AVI\nFormat/Info                 : Audio Video Interleave\nFile size                   : 1 000 MiB\nDuration                    : 1h 22mn\nOverall bit rate            : 1 702 Kbps\n\nVideo\nID                          : 0\nFormat                      : MPEG-4 Visual\nFormat profile              : Advanced Simple@L5\nFormat settings, BVOP       : 1\nFormat settings, QPel       : No\nFormat settings, GMC        : No warppoints\nFormat settings, Matrix     : Default (H.263)\nMuxing mode                 : Packed bitstream\nCodec ID                    : XVID\nCodec ID/Hint               : XviD\nDuration                    : 1h 22mn\nBit rate                    : 1 502 Kbps\nWidth                       : 720 pixels\nHeight                      : 400 pixels\nDisplay aspect ratio        : 16:9\nFrame rate                  : 25.000 fps\nColor space                 : YUV\nChroma subsampling          : 4:2:0\nBit depth                   : 8 bits\nScan type                   : Progressive\nCompression mode            : Lossy\nBits/(Pixel*Frame)          : 0.209\nStream size                 : 882 MiB (88%)\nWriting library             : XviD 1.2.1 (UTC 2008-12-04)\n\nAudio\nID                          : 1\nFormat                      : AC-3\nFormat/Info                 : Audio Coding 3\nMode extension              : CM (complete main)\nFormat settings, Endianness : Big\nCodec ID                    : 2000\nDuration                    : 1h 22mn\nBit rate mode               : Constant\nBit rate                    : 192 Kbps\nChannel(s)                  : 2 channels\nChannel positions           : Front: L R\nSampling rate               : 48.0 KHz\nCompression mode            : Lossy\nStream size                 : 113 MiB (11%)\nAlignment                   : Aligned on interleaves\nInterleave, duration        : 64 ms (1.60 video frames)\nInterleave, preload duratio : 192 ms\nTitle                       : Hollywood.Banker.2014.ReLeNTLesS.audio.2.0.AC3.English\nSample Included             : Yes\nSource                      : LiebeIst 1080 WEB-DL Thanks \n\nPL0T\nHow Frans Afman, a banker from the Netherlands, developed a new system for film financing, revolutionized independent filmmaking in Hollywood, but could not prevent it all from crashing down, when ambition of others turned into greed\n\nCAST\nDirector: Rozemyn Afman\nWriters: Pieter van den Berg (contributing writer), Rozemyn Afman\nStars: Frans J. Afman, Dino De Laurentiis, Martha De Laurentiis\n\nSCREENS\n[img]http://i.imgur.com/a59Qk1o.png[/img]\n[img]http://i.imgur.com/KDMk0ui.png[/img]\n[img]http://i.imgur.com/PzVl5Ul.png[/img]\n[img]http://i.imgur.com/ES3FDXI.png[/img]\n[img]http://i.imgur.com/ChD40fP.png[/img]\n[img]http://i.imgur.com/EfZnzL2.png[/img]\n\nTRAiLER\n\nGREETZ\n\n\nHIVE-CM8, Blackjesus, M0RPH, M00SE, MiLLENiUM,\n\nMANiX, TiTAN, Anonymous, TuX, \n\nACAB, KingStoner, FooKas, 4PlayHD, \n\nGodFather, Cld.... \n\nKeep up the good work guyz","torrent":{"xt":"urn:btih:3cc6f2afbc078ee41f7cf848f46bd1d276d933fe","amp;dn":"Hollywood.Banker.2014.WEBRiP.XViD.ReLeNTLesS","amp;tr":["udp%3A%2F%2Ftracker.openbittorrent.com%3A80","udp%3A%2F%2Fopen.demonii.com%3A1337","udp%3A%2F%2Ftracker.coppersurfer.tk%3A6969","udp%3A%2F%2Fexodus.desync.com%3A6969"],"infoHash":"3cc6f2afbc078ee41f7cf848f46bd1d276d933fe","infoHashBuffer":{"type":"Buffer","data":[60,198,242,175,188,7,142,228,31,124,248,72,244,107,209,210,118,217,51,254]},"announce":[],"urlList":[]}}